<?xml version="1.0" encoding="UTF-8"?><svg id="Layer_2" xmlns="http://www.w3.org/2000/svg" viewBox="0 0 400 225"><defs><style>.cls-1{fill:#fff;}.cls-2{fill:#ff66ab;}</style></defs><circle class="cls-2" cx="89" cy="92" r="25"/><circle class="cls-2" cx="197" cy="160" r="25"/><circle class="cls-2" cx="297" cy="73" r="25"/><path class="cls-1" d="M89,63.83c15.53,0,28.17,12.64,28.17,28.17s-12.64,28.17-28.17,28.17-28.17-12.64-28.17-28.17,12.64-28.17,28.17-28.17m0-4.33c-17.95,0-32.5,14.55-32.5,32.5s14.55,32.5,32.5,32.5,32.5-14.55,32.5-32.5-14.55-32.5-32.5-32.5h0Z"/><path class="cls-1" d="M197,129c17.09,0,31,13.91,31,31s-13.91,31-31,31-31-13.91-31-31,13.91-31,31-31m0-4c-19.33,0-35,15.67-35,35s15.67,35,35,35,35-15.67,35-35-15.67-35-35-35h0Z"/><path class="cls-1" d="M297.5,36.5c19.85,0,36,16.15,36,36s-16.15,36-36,36-36-16.15-36-36,16.15-36,36-36m0-4c-22.09,0-40,17.91-40,40s17.91,40,40,40,40-17.91,40-40-17.91-40-40-40h0Z"/></svg>